<svg width="512" height="512" viewBox="0 0 512 512" fill="none" xmlns="http://www.w3.org/2000/svg">
  <!-- Background circle with gradient -->
  <defs>
    <linearGradient id="gradient" x1="0%" y1="0%" x2="100%" y2="100%">
      <stop offset="0%" style="stop-color:#8b5cf6;stop-opacity:1" />
      <stop offset="100%" style="stop-color:#ec4899;stop-opacity:1" />
    </linearGradient>
  </defs>
  
  <!-- Background -->
  <rect width="512" height="512" rx="120" fill="url(#gradient)"/>
  
  <!-- Speech bubbles representing conversation/language exchange -->
  <!-- Left bubble (user A) -->
  <path d="M150 200 C150 170 170 150 200 150 L280 150 C310 150 330 170 330 200 L330 260 C330 290 310 310 280 310 L220 310 L180 340 L180 310 C160 310 150 295 150 260 Z" fill="white" opacity="0.9"/>
  
  <!-- Right bubble (user B) -->
  <path d="M362 252 C362 222 382 202 412 202 L480 202 C510 202 530 222 530 252 L530 312 C530 342 510 362 480 362 L440 362 L400 392 L400 362 C380 362 362 347 362 312 Z" fill="white" opacity="0.7"/>
  
  <!-- Connection lines showing exchange -->
  <path d="M280 230 L362 270" stroke="white" stroke-width="8" stroke-linecap="round" opacity="0.5"/>
  <path d="M280 250 L362 290" stroke="white" stroke-width="8" stroke-linecap="round" opacity="0.5"/>
</svg>
